<svg width="32" height="32" viewBox="0 0 32 32" fill="none" xmlns="http://www.w3.org/2000/svg">
<circle cx="16" cy="16" r="15" fill="#000000" fill-opacity="0.7"/>
<path d="M24.0202 19.6318L24.0202 19.6318C23.9879 19.774 23.8614 19.875 23.7155 19.875H12.2645H11.4988L11.6522 20.6252L11.9079 21.8752L12.0101 22.375H12.5202H23.0053C23.2058 22.375 23.3544 22.5612 23.31 22.7568L23.0945 23.705L22.9845 24.1891L23.431 24.4058C23.9541 24.6597 24.3125 25.1949 24.3125 25.8125C24.3125 26.6754 23.613 27.375 22.75 27.375C21.8871 27.375 21.1875 26.6754 21.1875 25.8125C21.1875 25.3754 21.3665 24.9811 21.657 24.6965L22.7507 23.625H21.2197H13.0303H11.4991L12.593 24.6965C12.8835 24.9811 13.0625 25.3754 13.0625 25.8125C13.0625 26.6754 12.3629 27.375 11.5 27.375C10.6371 27.375 9.9375 26.6754 9.9375 25.8125C9.9375 25.2339 10.2521 24.728 10.723 24.4572L11.1141 24.2323L11.0237 23.7902L8.27963 10.3748L8.17741 9.875H7.66731H4.9375C4.7649 9.875 4.625 9.7351 4.625 9.5625V8.9375C4.625 8.7649 4.7649 8.625 4.9375 8.625H8.94254C9.09102 8.625 9.21896 8.72947 9.24869 8.87483L9.2487 8.87486L9.60674 10.6253L9.70897 11.125H10.2191H25.5621C25.7626 11.125 25.9113 11.3112 25.8668 11.5068L24.0202 19.6318Z" stroke="white" stroke-width="1.25"/>
</svg>
