<?xml version="1.0" standalone="no"?>
<!DOCTYPE svg PUBLIC "-//W3C//DTD SVG 20010904//EN"
 "http://www.w3.org/TR/2001/REC-SVG-20010904/DTD/svg10.dtd">
<svg version="1.0" xmlns="http://www.w3.org/2000/svg"
 width="16.000000pt" height="16.000000pt" viewBox="0 0 16.000000 16.000000"
 preserveAspectRatio="xMidYMid meet">

<g transform="translate(0.000000,16.000000) scale(0.100000,-0.100000)"
fill="#CC7240" stroke="none">
<path d="M7 153 c-4 -4 7 -22 25 -40 l32 -33 -32 -33 c-42 -43 -28 -57 15 -15
l33 32 33 -32 c18 -18 36 -29 40 -25 4 4 -7 22 -25 40 l-32 33 32 33 c42 43
28 57 -15 15 l-33 -32 -33 32 c-18 18 -36 29 -40 25z"/>
</g>
</svg>
