<svg width="25" height="26" viewBox="0 0 25 26" fill="none" xmlns="http://www.w3.org/2000/svg">
<path d="M4.82959 21.6065C0.332306 16.8706 0.332306 9.19668 4.82959 4.46084C9.32687 -0.274997 16.6143 -0.274997 21.1115 4.46084C25.6088 9.19668 25.6088 16.8706 21.1115 21.6065C16.6143 26.3423 9.32687 26.3423 4.82959 21.6065ZM19.1998 10.0815C19.6158 9.64345 19.6158 8.92968 19.1998 8.49164L17.2838 6.47397C16.8678 6.03593 16.19 6.03593 15.774 6.47397L12.9706 9.42614L10.1671 6.47397C9.75113 6.03594 9.07331 6.03593 8.65734 6.47397L6.74131 8.49164C6.32534 8.92968 6.32534 9.64345 6.74131 10.0815L9.54477 13.0337L6.74131 15.9858C6.32534 16.4239 6.32534 17.1376 6.74131 17.5757L8.65734 19.5934C9.07331 20.0314 9.75113 20.0314 10.1671 19.5934L12.9706 16.6412L15.774 19.5933C16.19 20.0314 16.8678 20.0314 17.2838 19.5934L19.1998 17.5757C19.6158 17.1376 19.6158 16.4239 19.1998 15.9858L16.3964 13.0337L19.1998 10.0815Z" stroke="#909090"/>
</svg>
