<?xml version="1.0" standalone="no"?>
<!DOCTYPE svg PUBLIC "-//W3C//DTD SVG 20010904//EN"
 "http://www.w3.org/TR/2001/REC-SVG-20010904/DTD/svg10.dtd">
<svg version="1.0" xmlns="http://www.w3.org/2000/svg"
 width="512.000000pt" height="512.000000pt" viewBox="0 0 512.000000 512.000000"
 preserveAspectRatio="xMidYMid meet">

<g transform="translate(0.000000,512.000000) scale(0.100000,-0.100000)"
fill="#767676" stroke="none">
<path d="M2162 4613 c-15 -16 -245 -407 -512 -870 l-485 -842 -368 -1 -368 0
-24 -25 -25 -24 0 -1161 0 -1161 25 -25 24 -24 1165 2 c1103 3 1166 4 1183 21
16 16 18 46 21 347 l3 329 47 -20 c140 -60 340 -99 512 -99 221 0 408 43 607
140 392 192 662 546 750 986 26 131 23 386 -5 516 -108 495 -445 876 -915
1033 -152 51 -267 69 -442 68 -168 0 -288 -20 -442 -74 -48 -17 -95 -33 -103
-35 -12 -4 -85 115 -285 461 -299 520 -301 522 -363 458z m731 -1373 c366
-635 669 -1163 672 -1172 7 -17 -62 -18 -1359 -18 -751 0 -1366 2 -1366 5 0 3
307 537 682 1186 540 936 684 1177 693 1167 7 -7 312 -533 678 -1168z m707
404 c496 -101 868 -473 976 -974 25 -117 25 -353 0 -470 -94 -448 -400 -797
-821 -938 -378 -126 -808 -58 -1124 178 -98 74 -224 205 -288 300 -46 69 -93
152 -93 165 0 3 331 5 735 5 l736 0 26 26 c19 19 24 32 20 52 -3 15 -205 371
-448 792 -243 421 -443 770 -446 776 -2 7 40 26 104 47 94 31 143 41 288 61
55 8 259 -5 335 -20z m-2523 -891 c-2 -5 -99 -172 -215 -373 -115 -201 -211
-372 -213 -380 -6 -30 11 -67 36 -78 19 -9 210 -12 715 -12 l689 0 56 -108
c102 -196 255 -371 433 -496 l82 -58 0 -314 0 -314 -1070 0 -1070 0 0 1070 0
1070 281 0 c154 0 278 -3 276 -7z"/>
</g>
</svg>
