<svg width="30" height="24" viewBox="0 0 30 24" fill="none" xmlns="http://www.w3.org/2000/svg">
<circle cx="16" cy="16" r="15" fill="#000000" fill-opacity="1"/>
<path d="M14.6023 6.22623L5.0004 14.362V23.1428C5.0004 23.3701 5.08819 23.5882 5.24445 23.7489C5.40072 23.9097 5.61267 24 5.83366 24L11.6697 23.9845C11.8899 23.9833 12.1008 23.8925 12.2562 23.7319C12.4116 23.5712 12.4988 23.3538 12.4988 23.1272V17.9993C12.4988 17.772 12.5866 17.5539 12.7428 17.3932C12.8991 17.2324 13.111 17.1421 13.332 17.1421H16.6651C16.8861 17.1421 17.0981 17.2324 17.2543 17.3932C17.4106 17.5539 17.4984 17.772 17.4984 17.9993V23.1235C17.498 23.2363 17.5193 23.348 17.5611 23.4523C17.6028 23.5567 17.6641 23.6515 17.7415 23.7314C17.8189 23.8113 17.9109 23.8746 18.0122 23.9179C18.1134 23.9611 18.222 23.9834 18.3317 23.9834L24.1656 24C24.3866 24 24.5985 23.9097 24.7548 23.7489C24.9111 23.5882 24.9989 23.3701 24.9989 23.1428V14.3561L15.3991 6.22623C15.2862 6.13264 15.1456 6.08161 15.0007 6.08161C14.8557 6.08161 14.7151 6.13264 14.6023 6.22623ZM29.7693 11.756L25.4155 8.06394V0.642929C25.4155 0.472414 25.3496 0.308882 25.2324 0.18831C25.1152 0.0677371 24.9563 0 24.7905 0H21.8741C21.7083 0 21.5494 0.0677371 21.4322 0.18831C21.315 0.308882 21.2491 0.472414 21.2491 0.642929V4.53318L16.5865 0.586673C16.139 0.207869 15.5775 0.000757234 14.9981 0.000757234C14.4186 0.000757234 13.8571 0.207869 13.4096 0.586673L0.226805 11.756C0.163522 11.8098 0.111165 11.8759 0.0727266 11.9505C0.0342879 12.0251 0.0105204 12.1068 0.00278216 12.1909C-0.0049561 12.275 0.00348653 12.3598 0.0276277 12.4406C0.0517688 12.5213 0.0911353 12.5963 0.143478 12.6614L1.4715 14.3223C1.5237 14.3876 1.58791 14.4417 1.66044 14.4814C1.73298 14.5212 1.81242 14.5458 1.89422 14.5539C1.97603 14.562 2.05858 14.5534 2.13716 14.5287C2.21574 14.5039 2.2888 14.4635 2.35216 14.4096L14.6023 4.02956C14.7151 3.93597 14.8557 3.88494 15.0007 3.88494C15.1456 3.88494 15.2862 3.93597 15.3991 4.02956L27.6497 14.4096C27.7129 14.4635 27.7859 14.504 27.8644 14.5288C27.9428 14.5537 28.0253 14.5623 28.107 14.5544C28.1888 14.5464 28.2682 14.522 28.3407 14.4824C28.4133 14.4429 28.4775 14.389 28.5298 14.3239L29.8579 12.663C29.9101 12.5976 29.9493 12.5221 29.9732 12.4411C29.9971 12.36 30.0051 12.2748 29.9969 12.1906C29.9886 12.1063 29.9643 12.0245 29.9253 11.9499C29.8862 11.8753 29.8332 11.8094 29.7693 11.756Z" fill="#000"/>
</svg>