<svg width="19" height="24" viewBox="0 0 19 24" fill="none" xmlns="http://www.w3.org/2000/svg">
<path d="M0 24V2.25C0 1.00734 1.04932 0 2.34375 0H16.4062C17.7007 0 18.75 1.00734 18.75 2.25V24L9.375 18.75L0 24Z" fill="#FF3C2F"/>
<path d="M8.54894 3.92705C8.8483 3.00574 10.1517 3.00574 10.4511 3.92705L11.1839 6.18237C11.3177 6.5944 11.7017 6.87336 12.1349 6.87336L14.5063 6.87336C15.475 6.87336 15.8778 8.11297 15.0941 8.68237L13.1756 10.0762C12.8251 10.3309 12.6784 10.7822 12.8123 11.1943L13.5451 13.4496C13.8445 14.3709 12.79 15.137 12.0063 14.5676L10.0878 13.1738C9.7373 12.9191 9.2627 12.9191 8.91221 13.1738L6.99372 14.5676C6.21001 15.137 5.15553 14.3709 5.45488 13.4496L6.18768 11.1943C6.32155 10.7822 6.1749 10.3309 5.82441 10.0762L3.90592 8.68237C3.1222 8.11297 3.52498 6.87336 4.4937 6.87336L6.86509 6.87336C7.29832 6.87336 7.68227 6.5944 7.81614 6.18237L8.54894 3.92705Z" fill="#C4C4C4"/>
</svg>
