<svg xmlns="http://www.w3.org/2000/svg" version="1.1" xmlns:xlink="http://www.w3.org/1999/xlink" xmlns:svgjs="http://svgjs.dev/svgjs" width="1000" height="904" viewBox="0 0 1000 904"><g transform="matrix(1,0,0,1,-0.8645043384959763,0.36599190283396865)"><svg viewBox="0 0 273 247" data-background-color="#ffffff" preserveAspectRatio="xMidYMid meet" height="904" width="1000" xmlns="http://www.w3.org/2000/svg" xmlns:xlink="http://www.w3.org/1999/xlink"><g id="tight-bounds" transform="matrix(1,0,0,1,0.23600968440939596,-0.09999999999999432)"><svg viewBox="0 0 272.5279806311812 247.2" height="247.2" width="272.5279806311812"><g><svg viewBox="0 0 387.25805409415113 351.2673845465731" height="247.2" width="272.5279806311812"><g><svg viewBox="0 0 387.25805409415113 351.2673845465731" height="351.2673845465731" width="387.25805409415113"><g id="textblocktransform"><svg viewBox="0 0 387.25805409415113 351.2673845465731" height="351.2673845465731" width="387.25805409415113" id="textblock"><g><rect width="73.96628833198285" height="22.154981908537728" y="316.39102073856964" fill="#ea3c12" data-fill-palette-color="tertiary"></rect><rect width="73.96628833198285" height="22.154981908537728" y="316.39102073856964" x="313.29176576216827" fill="#ea3c12" data-fill-palette-color="tertiary"></rect></g><g><svg viewBox="0 0 387.25805409415113 245.672304" height="245.672304" width="387.25805409415113"><g transform="matrix(1,0,0,1,0,0)"><svg width="387.25805409415113" viewBox="3 -35.05 55.25 35.05" height="245.672304" data-palette-color="#ea3c12"><path d="M18.05 0L3 0 3-35.05 15.7-35.05Q17.25-35.05 18.3-33.98 19.35-32.9 19.35-31.45L19.35-31.45 19.35-21.5Q20.35-21.15 21-20.2 21.65-19.25 21.65-18.15L21.65-18.15 21.65-3.65Q21.65-2.1 20.6-1.05 19.55 0 18.05 0L18.05 0ZM7.7-30.4L7.7-21.7 12.85-21.7Q13.6-21.7 14.15-22.25 14.7-22.8 14.7-23.5L14.7-23.5 14.7-28.6Q14.7-29.35 14.15-29.88 13.6-30.4 12.85-30.4L12.85-30.4 7.7-30.4ZM7.7-17.1L7.7-4.65 15.25-4.65Q15.95-4.65 16.48-5.18 17-5.7 17-6.5L17-6.5 17-15.3Q17-16 16.48-16.55 15.95-17.1 15.25-17.1L15.25-17.1 7.7-17.1ZM37.45 0L32.6 0 25.75-35 30.4-35 35.05-11.35 39.7-35 44.35-35 48.95-11.35 53.6-35 58.25-35 51.4 0 46.55 0 42-23.2 37.45 0Z" opacity="1" transform="matrix(1,0,0,1,0,0)" fill="#ea3c12" class="wordmark-text-0" data-fill-palette-color="primary" id="text-0"></path></svg></g></svg></g><g transform="matrix(1,0,0,1,73.96628833198285,303.669638839104)"><svg viewBox="0 0 239.32547743018543 47.597745707469095" height="47.597745707469095" width="239.32547743018543"><g transform="matrix(1,0,0,1,8,0)"><svg width="223.32547743018543" viewBox="2.1 -36 172.415 36.75" height="47.597745707469095" data-palette-color="#ea9937"><path d="M14.6-36Q18.7-36 20.8-34.52 22.9-33.05 23.73-31.83 24.55-30.6 24.75-30.3L24.75-30.3Q25.25-29.65 25.25-29.3L25.25-29.3Q25.25-29 25.05-28.8 24.85-28.6 24.55-28.45 24.25-28.3 24.15-28.2L24.15-28.2Q23.55-27.8 22.55-26.95L22.55-26.95Q22.1-26.6 21.23-25.93 20.35-25.25 20.05-25.1L20.05-25.1Q19.85-24.95 19.65-24.95L19.65-24.95Q19.3-24.95 19-25.35 18.7-25.75 18.6-25.9L18.6-25.9Q18.5-26.05 18.07-26.55 17.65-27.05 17-27.4 16.35-27.75 15.55-27.75L15.55-27.75Q14.05-27.75 13.2-25.8 12.35-23.85 12.35-18.85L12.35-18.85Q12.35-15.55 12.9-13.45 13.45-11.35 14.23-10.43 15-9.5 15.7-9.5L15.7-9.5Q16.7-9.5 17.23-9.95 17.75-10.4 18.15-11.65L18.15-11.65Q18.55-12.85 19.45-12.85L19.45-12.85Q19.75-12.85 20.13-12.75 20.5-12.65 20.7-12.6L20.7-12.6Q21.2-12.4 23.15-11.98 25.1-11.55 26.5-11.3L26.5-11.3Q27.2-11.15 27.2-10.1L27.2-10.1Q27.2-9.6 27.15-9.35L27.15-9.35Q27.1-8.7 26.75-7.6L26.75-7.6Q25.7-4.4 23.18-1.83 20.65 0.75 15.65 0.75L15.65 0.75Q12.6 0.75 9.5-1.1 6.4-2.95 4.25-7.28 2.1-11.6 2.1-18.65L2.1-18.65Q2.1-28.65 5.95-32.33 9.8-36 14.6-36L14.6-36ZM36.2-34.6L36.1-31.7Q35.85-24.7 35.85-24.1L35.85-24.1 35.8-16.95Q35.8-16 35.85-15.3L35.85-15.3 35.9-12.3Q35.9-11.25 35.85-11L35.85-11Q35.8-10.7 35.82-10.45 35.85-10.2 35.85-10.1L35.85-10.1Q35.85-9.9 35.9-9.85L35.9-9.85 37.1-9.75Q38.7-9.65 39.75-9.7L39.75-9.7 49-9.8Q49-9.8 54.25-9.65L54.25-9.65 56.6-9.6Q57.15-9.55 57.15-9.3L57.15-9.3Q57.15-9.2 57.1-9.05 57.05-8.9 57.05-8.75L57.05-8.75 57.05-6.45Q57.05-5.55 57.35-2.65L57.35-2.65 57.55-0.55 57.6-0.3Q57.6-0.05 57.35 0.03 57.1 0.1 56.45 0.1L56.45 0.1 52.8 0.05 46.6-0.05Q45.35-0.05 43.1 0.1L43.1 0.1Q42.1 0.15 40.87 0.2 39.65 0.25 38.45 0.25L38.45 0.25 37.6 0.2Q37.3 0.15 36.45 0.15L36.45 0.15 34.2 0.2Q33.6 0.25 32.65 0.25L32.65 0.25Q32 0.25 31.87 0.08 31.75-0.1 31.77-0.45 31.8-0.8 31.8-1.05L31.8-1.05Q31.8-2.15 31.95-4.85L31.95-4.85 32.1-10 32-12.35Q31.95-13.05 31.9-14.03 31.85-15 31.85-16.05L31.85-16.05Q31.85-14.35 32.15-19.48 32.45-24.6 32.45-25.8L32.45-25.8 32.4-31.45 32.3-34.65 32.3-34.7Q32.3-35.1 32.85-35.1L32.85-35.1 33.55-35.05Q33.8-35.05 34.2-35.02 34.6-35 35.45-35L35.45-35 35.9-35Q36.2-35 36.2-34.6L36.2-34.6ZM79.5-34.9Q82.5-32.9 84.32-29.5 86.15-26.1 86.87-22.88 87.6-19.65 87.6-17.8L87.6-17.8Q87.6-14.7 86.62-10.6 85.65-6.5 82.45-2.98 79.25 0.55 73.2 0.55L73.2 0.55Q64.9 0.55 61.4-9.1L61.4-9.1Q59.85-13.45 59.65-18.8L59.65-18.8Q59.65-23.2 61.5-27.18 63.35-31.15 66.37-33.55 69.4-35.95 72.6-35.95L72.6-35.95Q75.5-35.95 76.92-35.8 78.35-35.65 79.5-34.9L79.5-34.9ZM72.95-2.25Q78.25-2.25 80.85-6.68 83.45-11.1 83.45-17.8L83.45-17.8Q83.45-21.9 82.22-25.38 81-28.85 78.77-30.93 76.55-33 73.65-33L73.65-33Q73.4-33 72.32-33 71.25-33 70.45-32.65 69.65-32.3 69-31.6L69-31.6Q67.35-29.95 66.22-28.58 65.1-27.2 63.97-24.5 62.85-21.8 62.85-18.25L62.85-18.25Q62.85-14.05 63.87-10.43 64.9-6.8 67.15-4.53 69.4-2.25 72.95-2.25L72.95-2.25ZM116.29-35.95Q116.89-35.9 117.02-35.65 117.14-35.4 117.12-34.98 117.09-34.55 117.09-34.35L117.09-34.35Q117.14-33.7 116.84-33.45 116.54-33.2 115.89-33.2L115.89-33.2Q115.49-33.2 114.37-33.15 113.24-33.1 111.64-33.15L111.64-33.15 111.44-33.15 111.34-24.1 111.29-15.3Q111.29-13.3 111.52-10.23 111.74-7.15 111.79-6.35L111.79-6.35Q112.09-2.35 112.09-1.85L112.09-1.85Q112.14-0.85 111.64-0.55 111.14-0.25 109.89-0.25L109.89-0.25 107.69-0.3Q107.44-0.3 99.49-0.45L99.49-0.45 96.39-0.5Q95.89-0.5 95.89-1.5L95.89-1.5Q95.89-1.85 95.99-2.85L95.99-2.85Q96.09-4.15 96.09-4.85L96.09-4.85Q95.99-6.15 95.99-9.4L95.99-9.4Q95.99-13.75 96.12-18.7 96.24-23.65 96.44-26.15L96.44-26.15Q96.54-27.45 96.54-29.65L96.54-29.65Q96.54-32.1 96.39-33.35L96.39-33.35 95.49-33.4 91.34-33.3Q90.94-33.3 90.94-34.1L90.94-34.1 90.99-35.2Q90.99-35.6 91.12-35.73 91.24-35.85 91.54-35.85L91.54-35.85Q91.74-35.85 92.04-35.8 92.34-35.75 92.74-35.75L92.74-35.75 103.39-35.8 112.09-35.9Q114.14-35.95 116.29-35.95L116.29-35.95ZM131.09-21.5L133.24-21.45Q134.29-21.45 135.19-21.55L135.19-21.55Q135.49-21.6 136.14-21.6L136.14-21.6Q136.84-21.6 137.19-21.55L137.19-21.55 138.34-21.45 138.49-22.95 138.64-25.35 138.74-30.25 138.84-34.1Q138.89-34.85 139.04-35.1 139.19-35.35 139.74-35.4L139.74-35.4Q140.24-35.4 142.54-35.7L142.54-35.7Q142.94-35.75 143.99-35.75L143.99-35.75Q145.59-35.75 146.64-35.6L146.64-35.6Q147.19-35.5 147.32-35.38 147.44-35.25 147.47-34.95 147.49-34.65 147.54-34.4L147.54-34.4Q147.54-33.6 147.39-31.7L147.39-31.7Q147.19-28.2 147.19-26.9L147.19-26.9Q147.19-26.25 146.89-22.75L146.89-22.75Q146.59-18.95 146.59-17.8L146.59-17.8 146.69-7.9Q146.69-2.3 146.89-1.05L146.89-1.05 146.89-0.95Q146.89-0.4 146.69-0.28 146.49-0.15 146.24-0.18 145.99-0.2 145.89-0.2L145.89-0.2Q145.49-0.3 144.89-0.3L144.89-0.3Q144.69-0.3 143.59-0.2L143.59-0.2Q142.19-0.05 139.09-0.05L139.09-0.05 138.99-0.05Q138.29-0.05 138.29-0.5L138.29-0.5Q138.29-1.45 138.27-4.25 138.24-7.05 138.09-8.35L138.09-8.35Q137.99-10.25 137.99-12.05L137.99-12.05Q137.94-12.8 137.94-14.35L137.94-14.35 136.49-14.35 134.34-14.3 133.44-14.25 132.44-14.3Q131.69-14.3 131.24-14.35L131.24-14.35 131.09-11.2Q130.94-9.45 130.94-6.65L130.94-6.65 130.94-4.1Q130.94-1.4 131.04-0.85L131.04-0.85Q131.14-0.25 130.87-0.13 130.59 0 130.22 0 129.84 0 129.69 0L129.69 0Q129.29-0.05 128.34-0.13 127.39-0.2 126.79-0.2L126.79-0.2 125.34-0.1Q124.99-0.05 122.74 0.1L122.74 0.1Q121.59 0.25 121.59-1.3L121.59-1.3 121.64-3.25 121.74-6.85Q121.74-7.95 121.79-8.9L121.79-8.9 121.84-14.7Q121.84-16.7 121.79-17.25L121.79-17.25Q121.64-18.4 121.64-20.25L121.64-20.25 121.69-23.3Q121.74-24.05 121.74-25.25L121.74-25.25Q121.74-26.65 122.04-31.05L122.04-31.05 122.19-34.5Q122.19-34.9 122.34-35.05 122.49-35.2 122.79-35.2L122.79-35.2 123.44-35.15Q124.09-35.05 125.14-35 126.19-34.95 127.19-34.95L127.19-34.95 129.49-35Q130.04-35.05 130.74-35.05L130.74-35.05 130.79-35.05Q131.19-35.05 131.19-34.5L131.19-34.5Q131.24-34.4 131.27-32.52 131.29-30.65 131.29-28.1L131.29-28.1Q131.29-26.5 131.19-23.8L131.19-23.8 131.09-21.5ZM174.49-33.25L174.49-32.7Q174.49-31.55 174.29-31.55L174.29-31.55Q173.99-31.55 173.61-31.63 173.24-31.7 172.69-31.7L172.69-31.7 164.69-31.7 158.49-31.75Q158.19-31.75 156.24-31.6L156.24-31.6 155.09-31.5 154.99-30.15Q154.94-29.4 154.94-27.8L154.94-27.8Q154.94-27 155.04-25.7L155.04-25.7Q155.14-24.5 155.14-23.95L155.14-23.95 155.14-21.95Q155.14-21.15 155.19-20.7L155.19-20.7Q155.64-20.65 156.54-20.65L156.54-20.65 158.54-20.65Q158.84-20.65 159.74-20.75L159.74-20.75Q161.04-20.85 161.99-20.85L161.99-20.85Q162.39-20.85 164.79-20.7L164.79-20.7 165.89-20.65Q166.29-20.65 167.04-20.73 167.79-20.8 168.49-20.8L168.49-20.8 170.14-20.75Q171.44-20.65 171.94-20.65L171.94-20.65Q172.49-20.65 172.69-20.7L172.69-20.7 172.99-20.75Q173.34-20.75 173.49-20.53 173.64-20.3 173.59-20.1L173.59-20.1Q173.54-19.75 173.54-19.23 173.54-18.7 173.49-18.3L173.49-18.3Q173.44-17.9 173.34-17.82 173.24-17.75 172.74-17.75L172.74-17.75 170.74-17.95Q166.99-18.3 165.84-18.3L165.84-18.3Q161.59-18.3 159.59-18.15L159.59-18.15Q158.79-18.05 157.84-18.05 156.89-18.05 156.64-18.05L156.64-18.05Q155.69-18.05 155.24-18.1L155.24-18.1 155.09-17.3Q154.99-16.4 154.99-15.7L154.99-15.7Q154.99-15.1 155.09-14.3L155.09-14.3Q155.19-13.5 155.19-12.9L155.19-12.9 155.24-6.95 155.19-4.45Q155.14-4 155.14-3.2L155.14-3.2Q155.79-3.15 157.04-3.15L157.04-3.15Q158.09-3.1 160.29-3.1L160.29-3.1 162.99-3.05Q163.84-3 165.59-3L165.59-3Q166.64-3 168.34-3.1L168.34-3.1 170.44-3.15Q171.64-3.15 172.44-3.1 173.24-3.05 173.64-3.05L173.64-3.05Q174.04-3.05 174.11-2.9 174.19-2.75 174.19-2.25L174.19-2.25Q174.19-1.9 174.14-1.53 174.09-1.15 174.09-0.7L174.09-0.7Q174.09-0.35 173.84-0.23 173.59-0.1 173.04-0.1L173.04-0.1Q172.49-0.1 172.14-0.15L172.14-0.15Q170.79-0.3 166.69-0.3L166.69-0.3Q164.19-0.3 163.09-0.25L163.09-0.25Q162.24-0.2 160.29-0.2L160.29-0.2 155.64-0.25Q154.84-0.3 153.74-0.3L153.74-0.3Q153.04-0.3 152.81-0.48 152.59-0.65 152.59-1.05L152.59-1.05 152.64-1.85Q152.69-2.05 152.69-2.3L152.69-2.3Q152.69-2.45 152.64-3.03 152.59-3.6 152.59-5.15L152.59-5.15Q152.59-6.65 152.49-10.05L152.49-10.05Q152.34-12.85 152.34-15.45L152.34-15.45Q152.34-16.55 152.59-21.8L152.59-21.8Q152.64-22.85 152.69-23.9 152.74-24.95 152.74-25.8L152.74-25.8Q152.74-31.6 152.59-33.45L152.59-33.45Q152.44-34.65 154.04-34.65L154.04-34.65Q154.44-34.65 155.34-34.55L155.34-34.55Q156.14-34.45 156.54-34.45L156.54-34.45 159.69-34.55Q163.09-34.75 164.94-34.75L164.94-34.75Q167.09-34.75 170.99-34.65L170.99-34.65Q172.24-34.6 173.64-34.6L173.64-34.6Q174.24-34.6 174.39-34.3 174.54-34 174.51-33.68 174.49-33.35 174.49-33.25L174.49-33.25Z" opacity="1" transform="matrix(1,0,0,1,0,0)" fill="#ea9937" class="slogan-text-1" data-fill-palette-color="secondary" id="text-1"></path></svg></g></svg></g></svg></g></svg></g><g></g></svg></g><defs></defs></svg><rect width="272.5279806311812" height="247.2" fill="none" stroke="none" visibility="hidden"></rect></g></svg></g></svg>