<?xml version="1.0" standalone="no"?>
<!DOCTYPE svg PUBLIC "-//W3C//DTD SVG 20010904//EN"
 "http://www.w3.org/TR/2001/REC-SVG-20010904/DTD/svg10.dtd">
<svg version="1.0" xmlns="http://www.w3.org/2000/svg"
 width="512.000000pt" height="512.000000pt" viewBox="0 0 512.000000 512.000000"
 preserveAspectRatio="xMidYMid meet">

<g transform="translate(0.000000,512.000000) scale(0.100000,-0.100000)"
fill="#fff" stroke="none">
<path d="M895 4306 c-41 -18 -83 -69 -90 -109 -3 -18 -5 -280 -3 -584 3 -539
3 -552 24 -579 39 -53 71 -69 134 -69 63 0 95 16 134 69 20 26 21 44 26 382
l5 354 460 -461 c253 -253 472 -467 487 -475 42 -22 119 -18 158 9 66 44 92
137 56 203 -8 16 -222 236 -475 489 l-461 460 354 5 c338 5 356 6 382 26 53
39 69 71 69 134 0 63 -16 95 -69 134 -27 21 -39 21 -594 23 -456 2 -573 0
-597 -11z"/>
<path d="M2923 2299 c-71 -21 -123 -109 -109 -186 7 -34 60 -91 484 -515 l476
-477 -356 -3 c-342 -3 -358 -4 -384 -24 -53 -39 -69 -71 -69 -134 0 -63 16
-95 69 -134 27 -21 37 -21 606 -21 569 0 579 0 606 21 15 11 37 33 48 48 21
27 21 40 24 594 2 537 1 569 -16 602 -56 104 -199 116 -270 22 l-27 -35 -5
-354 -5 -353 -460 461 c-307 308 -473 467 -500 480 -44 20 -64 22 -112 8z"/>
</g>
</svg>
