<svg xmlns="http://www.w3.org/2000/svg" width="48" height="48" id="message"><g transform="translate(550 -925.37)"><circle cx="-526" cy="949.369" r="24" fill="#ffa40b" fill-rule="evenodd"></circle><path style="line-height:normal;text-indent:0;text-align:start;text-decoration-line:none;text-decoration-style:solid;text-decoration-color:#000;text-transform:none;block-progression:tb;isolation:auto;mix-blend-mode:normal" fill="#fff" d="M-526.506 938.37a.5.5 0 0 0-.271.083 266.825 266.825 0 0 1-4.45 2.906.5.5 0 0 0-.015.01h-2.258c-.822 0-1.5.678-1.5 1.5v.866c-.712.45-1.184.758-1.494 1.048a1.55 1.55 0 0 0-.494.979.5.5 0 0 0 0 .002.5.5 0 0 0-.012.105v11c0 .823.678 1.5 1.5 1.5h18a1.51 1.51 0 0 0 1.5-1.5v-11a.5.5 0 0 0-.014-.113 1.563 1.563 0 0 0-.506-.984c-.308-.285-.783-.597-1.48-1.037v-.866c0-.822-.678-1.5-1.5-1.5h-2.262a.5.5 0 0 0-.04-.029l-.173-.11h-.002a269.355 269.355 0 0 1-4.246-2.777.5.5 0 0 0-.283-.084zm.006 1.097c1.126.748 2.014 1.322 2.91 1.902h-5.824c.905-.586 1.776-1.145 2.914-1.902zm-7 2.902h14c.286 0 .5.214.5.5v3.918l-3.498 2.1a.5.5 0 0 0-.467-.32.5.5 0 0 0-.226.052l-.94.457-1.37-.797 1.536-.894.774.375a.5.5 0 1 0 .437-.899l-.17-.082.461-.267a.5.5 0 0 0-.23-.936v.002a.5.5 0 0 0-.274.07l-.535.31.026-.347a.5.5 0 0 0-.52-.543.5.5 0 0 0-.477.471l-.074 1.03-1.453.843v-1.771l.783-.532a.5.5 0 1 0-.56-.828l-.223.15v-.552a.5.5 0 0 0-.508-.508.5.5 0 0 0-.492.508v.553l-.22-.15a.5.5 0 0 0-.284-.093v.002a.5.5 0 0 0-.277.918l.781.53v1.771l-1.453-.846-.072-1.025a.5.5 0 0 0-.494-.47.5.5 0 0 0-.504.542l.025.344-.535-.31a.5.5 0 0 0-.287-.07.5.5 0 0 0-.217.935l.463.27-.172.081a.5.5 0 1 0 .437.899l.776-.375 1.54.894-1.37.797-.945-.459a.5.5 0 0 0-.243-.053v.002a.5.5 0 0 0-.449.32l-3.5-2.099v-3.918c0-.286.214-.5.5-.5zm15.5 2.557c.371.246.662.45.803.58.074.068.092.093.12.127l-.923.554v-1.261zm-17 .002v1.26l-.924-.555c.028-.033.044-.055.114-.12.139-.13.434-.336.81-.585zm-1 1.826 9.242 5.545a.5.5 0 0 0 .516 0l9.242-5.545v10.115c0 .286-.214.5-.5.5h-18a.488.488 0 0 1-.5-.5v-10.115zm10 2.392 1.465.852.008.105-1.28.768-.193-.13v-1.595zm-1 .002v1.594l-.191.13-1.284-.768.008-.102 1.467-.854z" color="#000" font-family="sans-serif" font-weight="400" overflow="visible"></path></g></svg>