<svg width="32" height="32" viewBox="0 0 32 32" fill="none" xmlns="http://www.w3.org/2000/svg">
<circle cx="16" cy="16" r="15" fill="#000000" fill-opacity="0.7"/>
<path d="M15.9167 13.0968C17.5289 13.0968 18.8333 14.3952 18.8333 16C18.8333 17.6048 17.5289 18.9032 15.9167 18.9032C14.3044 18.9032 13 17.6048 13 16C13 14.3952 14.3044 13.0968 15.9167 13.0968ZM13 8.90323C13 10.5081 14.3044 11.8065 15.9167 11.8065C17.5289 11.8065 18.8333 10.5081 18.8333 8.90323C18.8333 7.29839 17.5289 6 15.9167 6C14.3044 6 13 7.29839 13 8.90323ZM13 23.0968C13 24.7016 14.3044 26 15.9167 26C17.5289 26 18.8333 24.7016 18.8333 23.0968C18.8333 21.4919 17.5289 20.1935 15.9167 20.1935C14.3044 20.1935 13 21.4919 13 23.0968Z" fill="white"/>
</svg>
