<svg width="16" height="17" viewBox="0 0 16 17" fill="none" xmlns="http://www.w3.org/2000/svg">
<path d="M4.03944 4.96739L4.03945 4.96738C4.51003 4.26392 5.06298 3.68751 5.75717 3.28967C6.45401 2.8903 7.26216 2.68868 8.21468 2.68868C9.24693 2.68868 10.2979 3.08851 11.0945 3.74676C11.8933 4.40677 12.4737 5.36081 12.4737 6.479C12.4737 7.19798 12.2772 7.76526 11.967 8.21821C11.6623 8.66301 11.2654 8.97211 10.904 9.20639C10.7294 9.31961 10.556 9.41967 10.4043 9.50721L10.3893 9.51584C10.2285 9.60865 10.0987 9.68415 9.99126 9.75741C9.84254 9.8588 9.8005 9.91432 9.79032 9.9316V9.96287C9.79032 10.4528 9.39314 10.85 8.90323 10.85H8.78385C9.48923 11.1543 9.98387 11.8565 9.98387 12.6726C9.98387 13.7669 9.09437 14.6564 8 14.6564C6.90562 14.6564 6.01613 13.7669 6.01613 12.6726C6.01613 11.8565 6.51077 11.1543 7.21615 10.85H7.09677C6.60686 10.85 6.20968 10.4528 6.20968 9.96287V9.83384C6.20968 8.24257 7.41422 7.57176 8.14335 7.1657L4.03944 4.96739ZM4.03944 4.96739C3.77877 5.35706 3.86536 5.88379 4.2405 6.16825L4.24052 6.16826L5.35982 7.01696C5.74426 7.30848 6.29259 7.23968 6.59218 6.85964C6.88427 6.48917 7.08605 6.25715 7.29866 6.10756C7.48744 5.97474 7.70297 5.89536 8.048 5.89536C8.28216 5.89536 8.55585 5.97409 8.75979 6.10658C8.96759 6.24159 9.02213 6.37223 9.02213 6.45852C9.02213 6.53001 9.00552 6.58763 8.90127 6.68439C8.77187 6.80448 8.56499 6.92952 8.22815 7.11837L4.03944 4.96739ZM9.78745 9.93755C9.78736 9.93756 9.78761 9.93672 9.78846 9.935C9.78796 9.93668 9.78754 9.93754 9.78745 9.93755ZM15.5 8.54352C15.5 12.6866 12.1419 16.0435 8 16.0435C3.85812 16.0435 0.5 12.6866 0.5 8.54352C0.5 4.40293 3.85823 1.04352 8 1.04352C12.1418 1.04352 15.5 4.40293 15.5 8.54352Z" stroke="#909090"/>
</svg>
