<svg width="32" height="32" viewBox="0 0 32 32" fill="none" xmlns="http://www.w3.org/2000/svg">
<circle cx="16" cy="16" r="15" fill="#000000" fill-opacity="1"/>
<path d="M25.728 23.2913L21.8332 19.3971C21.6574 19.2214 21.4191 19.1237 21.1691 19.1237H20.5323C21.6105 17.7449 22.2512 16.0107 22.2512 14.1242C22.2512 9.63636 18.6142 6 14.1256 6C9.63698 6 6 9.63636 6 14.1242C6 18.612 9.63698 22.2484 14.1256 22.2484C16.0125 22.2484 17.747 21.6079 19.126 20.5298V21.1665C19.126 21.4165 19.2236 21.6547 19.3994 21.8305L23.2942 25.7246C23.6614 26.0918 24.2552 26.0918 24.6185 25.7246L25.7241 24.6193C26.0913 24.2521 26.0913 23.6584 25.728 23.2913ZM14.1256 19.1237C11.3637 19.1237 9.12523 16.8896 9.12523 14.1242C9.12523 11.3628 11.3598 9.12469 14.1256 9.12469C16.8875 9.12469 19.126 11.3589 19.126 14.1242C19.126 16.8857 16.8914 19.1237 14.1256 19.1237Z" fill="white"/>
</svg>
