<?xml version="1.0" standalone="no"?>
<!DOCTYPE svg PUBLIC "-//W3C//DTD SVG 20010904//EN"
 "http://www.w3.org/TR/2001/REC-SVG-20010904/DTD/svg10.dtd">
<svg version="1.0" xmlns="http://www.w3.org/2000/svg"
 width="128.000000pt" height="128.000000pt" viewBox="0 0 128.000000 128.000000"
 preserveAspectRatio="xMidYMid meet">

<g transform="translate(0.000000,128.000000) scale(0.100000,-0.100000)"
fill="#adadad" stroke="none">
<path d="M497 1060 c-84 -22 -163 -74 -212 -140 -177 -240 -19 -574 278 -588
91 -5 148 9 213 50 l47 29 102 -100 c56 -56 106 -101 112 -101 12 0 33 21 33
33 0 6 -45 56 -101 112 l-100 102 30 47 c111 176 37 433 -153 526 -70 35 -178
47 -249 30z m173 -66 c81 -23 148 -77 185 -149 27 -53 30 -68 30 -149 0 -79
-4 -98 -27 -141 -54 -102 -139 -156 -258 -163 -97 -5 -168 20 -232 83 -69 68
-92 123 -93 220 0 94 24 157 83 218 83 86 193 115 312 81z"/>
</g>
</svg>
